<?xml version="1.0" encoding="UTF-8" standalone="no"?>
<svg
   height="75"
   version="1.1"
   width="255"
   id="svg1294"
   sodipodi:docname="logo.svg"
   inkscape:version="1.2.2 (b0a8486541, 2022-12-01)"
   xmlns:inkscape="http://www.inkscape.org/namespaces/inkscape"
   xmlns:sodipodi="http://sodipodi.sourceforge.net/DTD/sodipodi-0.dtd"
   xmlns="http://www.w3.org/2000/svg"
   xmlns:svg="http://www.w3.org/2000/svg">
  <sodipodi:namedview
     id="namedview1296"
     pagecolor="#ffffff"
     bordercolor="#666666"
     borderopacity="1.0"
     inkscape:showpageshadow="2"
     inkscape:pageopacity="0.0"
     inkscape:pagecheckerboard="0"
     inkscape:deskcolor="#d1d1d1"
     showgrid="false"
     inkscape:zoom="2.1733333"
     inkscape:cx="130.90491"
     inkscape:cy="113.65031"
     inkscape:window-width="1276"
     inkscape:window-height="1413"
     inkscape:window-x="3840"
     inkscape:window-y="23"
     inkscape:window-maximized="1"
     inkscape:current-layer="svg1294" />
  <defs
     id="defs2" />
  <rect
     fill="#d8ff00"
     height="15"
     width="15"
     x="0"
     y="15"
     id="rect4"
     style="fill:#d8ff00;fill-opacity:1" />
  <rect
     fill="#d8ff00"
     height="15"
     width="45"
     x="15"
     y="0"
     id="rect6"
     style="fill:#d8ff00;fill-opacity:1" />
  <path
     id="rect8"
     d="M 60,15 V 30 H 15 V 45 H 60 V 60 H 75 V 15 Z"
     style="fill:#d8ff00;fill-opacity:1" />
  <path
     id="rect10"
     d="m 17,60 v 1 h 1 1 v -1 z m 10,0 v 1 1 h -1 v 1 1 h 1 v -1 h 1 1 v -1 h -1 v -1 h 1 v 1 h 1 v 1 h 1 1 v -1 h -1 v -1 h 1 v 1 h 1 v 1 h 1 v -1 h 1 v 1 1 h 1 1 1 v -1 h 1 v 1 h -1 v 1 h 1 v 1 h -1 v -1 h -1 v 1 h -1 -1 v -1 -1 h -1 v 1 h -1 v 1 h -1 v 1 h 1 1 v 1 h -1 v 1 h -1 v -1 -1 h -1 v 1 h -1 v -1 h -1 v 1 h -1 -1 -1 v -1 h -1 v 1 1 1 h 1 v -1 h 1 v 1 h 1 v -1 h 1 v 1 h 1 1 v 1 h 1 v -1 h 1 v 1 1 h 1 v -1 -1 -1 h 1 1 v 1 h -1 v 1 1 h -1 v 1 h -1 v -1 h -1 -1 -1 v 1 1 h 1 v -1 h 1 v 1 1 h 6 v -1 h -1 v -1 h 1 v 1 h 1 v 1 H 60 V 60 H 40 v 1 h -1 v -1 h -2 v 1 h -1 v -1 h -2 v 1 h -1 v -1 z m 3,14 h -1 v -1 h -1 v 1 1 h 2 z m -5,-4 h -1 -1 v -1 h -1 v 1 1 h -1 v 1 h 1 1 v -1 h 1 1 z m 0,-3 v -1 h -1 v 1 z m -1,0 h -1 -1 v 1 h 1 1 z m -2,0 v -1 h -1 v 1 z m 2,-1 v -1 h -1 v 1 z m 8,0 v -1 h 1 v -1 -1 h -1 v 1 h -1 -1 -1 v 1 h -1 v -1 h -1 v 1 h -1 v 1 h 1 1 1 1 v -1 h 1 v 1 z m -6,-1 v -1 h -1 v 1 z m -1,-1 v -1 h -1 v 1 z m 1,-2 v -1 h -1 v 1 z m -6,-1 v 1 h 1 1 v -1 h -1 z m 3,0 v 1 h 1 v -1 z m -4,2 v 1 h 1 v -1 z m 1,1 v 1 h 1 v -1 z m 21,0 h 1 v 1 h -1 v 1 h -1 v -1 h 1 z m -24,3 v 1 h 1 v -1 z m 2,0 v 1 h 1 v -1 z m 16,0 h 1 1 1 v 1 h -1 -1 -1 z m 7,0 h 1 v 1 h -1 z m -3,3 h 1 v 1 h -1 z m -13,1 v 1 h 1 v -1 z m 2,0 v 1 h 1 v -1 z m -10,1 v 1 h 1 1 v -1 h -1 z m 3,1 v 1 h 1 v -1 z m 0,1 h -1 v 1 h 1 z m 3,-1 v 1 h -1 v 1 h 3 v -1 h -1 v -1 z m 2,1 h 1 v -1 h -1 z m 14,-1 h 1 v 1 h -1 z m -25,1 v 1 h 2 v -1 h -1 z"
     style="fill:#d8ff00;fill-opacity:1" />
  <rect
     fill="#d8ff00"
     height="15"
     width="15"
     x="90"
     y="45"
     id="rect14"
     style="fill:#d8ff00;fill-opacity:1" />
  <path
     id="rect16"
     d="m 117,0 v 1 h 1 1 V 0 Z m 2,1 v 1 1 h 1 1 1 1 V 2 h -1 V 1 h 1 v 1 h 1 V 1 0 h -3 v 1 1 h -1 V 1 Z m 5,1 v 1 h -1 v 1 1 1 h 1 V 5 h 1 1 1 v 1 h -1 -1 -1 v 1 1 h 1 V 7 h 1 1 v 1 h -1 v 1 h -1 -1 -1 V 8 7 h -1 v 1 1 1 h -1 -1 v 1 1 h 1 v 1 1 h -1 v -1 -1 h -1 v 1 h -1 v 1 h 1 v 1 h 5 v -1 h -1 v -1 h 1 v 1 h 1 1 v -1 h 1 1 v 1 h -1 v 1 h 23 V 0 h -25 v 1 1 z m -4,8 V 9 h -1 -1 v 1 1 h 1 v -1 z m -2,1 h -1 v 1 h 1 z m -1,1 h -1 v 1 h 1 z m -1,1 h -1 v 1 h 1 z m 0,1 v 1 h 1 v -1 z m 0,-2 v -1 h -1 -1 v -1 h -1 v 1 h -1 v 1 h 1 1 1 z m -4,0 h -1 v 1 h 1 z m -1,1 h -1 v 1 h 1 z m 0,1 v 1 h 2 v -1 h -1 z m -1,-1 v -1 h 1 v -1 h -1 -1 -1 -1 v 1 h 1 1 v 1 z m 6,-2 h 1 v -1 h -1 z m 4,-2 h 1 V 8 7 6 h 1 V 5 h -1 -1 -1 v 1 h -1 v 1 h -1 v 1 h 1 1 V 7 h 1 v 1 z m -3,-1 h -1 V 7 h -1 v 1 1 h 1 1 z M 115,7 V 6 5 h 1 1 v 1 h 1 V 5 h 1 V 4 h -1 V 3 2 h -1 v 1 1 h -1 V 3 h -1 -1 -1 v 1 h 1 v 1 1 h -1 v 1 h 1 z m -2,0 h -1 v 1 h 1 z m 0,1 v 1 h 1 V 8 Z M 112,7 V 6 h -1 v 1 z m -1,0 h -1 v 1 h 1 z m -1,0 V 6 h -1 v 1 z m 7,-1 h -1 v 1 h 1 z m -5,-5 v 1 h 1 V 1 Z m 15,0 h 1 1 1 v 1 h -1 -1 -1 z m -22,1 v 1 h 1 V 2 Z m 1,1 v 1 h 1 V 3 Z m 2,-1 v 1 h 1 V 2 Z m 3,1 v 1 h 1 V 3 Z m 17,2 h 1 v 1 h -1 z m 2,1 h 1 v 1 h -1 z m -23,1 v 1 h 1 V 7 Z m 21,0 h 1 v 1 h -1 z m 3,1 h 1 v 1 h -1 z m -1,2 h 1 v 1 h -1 z m 2,0 h 1 v 1 h -1 z m -10,1 h 1 v 1 h -1 z m 5,0 h 1 v 1 h -1 z m 2,1 h 1 v 1 h -1 z"
     style="fill:#d8ff00;fill-opacity:1" />
  <path
     id="rect18"
     d="m 150,15 v 15 h -45 v 15 h 45 v 15 h -45 v 15 h 45 15 V 15 Z"
     style="fill:#d8ff00;fill-opacity:1" />
  <path
     id="rect24"
     d="m 180,0 v 75 h 15 V 15 h 15 V 0 h -15 z"
     style="fill:#d8ff00;fill-opacity:1" />
  <rect
     fill="#d8ff00"
     height="60"
     width="15"
     x="210"
     y="15"
     id="rect28"
     style="fill:#d8ff00;fill-opacity:1" />
  <rect
     fill="#d8ff00"
     height="15"
     width="15"
     x="225"
     y="0"
     id="rect30"
     style="fill:#d8ff00;fill-opacity:1" />
  <path
     id="rect32"
     d="m 240,15 v 40 h 1 1 v -1 h 1 v 1 h -1 v 1 h 1 v 1 h 1 1 v 1 h -1 -1 v 1 1 h -1 -1 v 1 1 h -1 v 3 h 1 v -1 h 1 v 1 1 h 1 1 1 v -1 h -1 v -1 h -1 v -1 h -1 v -1 -1 h 1 v 1 1 h 1 v -1 -1 h 1 v 1 h 1 v -1 -1 h 1 v -1 h -1 v -1 h 1 1 v 1 1 h -1 v 1 h 1 1 v -1 -1 -1 h 1 v 1 1 h 1 v -1 -1 h 1 v -1 h 1 v -1 h -1 v -1 h 1 v -1 h 1 v 1 1 h 1 V 15 Z m 13,42 v 1 h 1 v -1 z m 1,1 v 1 1 h 1 v -2 z m -1,0 h -1 v 1 1 h 1 v -1 z m -1,2 h -1 v 1 h 1 z m 0,1 v 1 h -1 v 1 1 1 1 h 1 v -1 -1 h 1 v -1 h 1 v -1 -1 h -1 z m -1,1 v -1 h -1 -1 v 1 h 1 z m -5,0 v 1 h 1 v -1 z m 1,1 v 1 1 1 h 1 v -1 h 1 v -1 h -1 v -1 z m 1,3 v 1 h 1 v -1 z m -1,0 h -1 v 1 h 1 z m -5,0 h -1 -1 v 1 h 1 v 1 h 1 v 1 1 h 1 v -1 h 1 v -1 h -1 v -1 h -1 z m 2,2 h 1 v -1 h -1 z m 0,1 v 1 h 1 v -1 z m -2,1 h -1 v 1 h 1 z m 0,-14 h -1 -1 v 3 h 1 1 v -1 h -1 v -1 h 1 z m 5,-9 h 1 v 1 h -1 v 1 h -1 v -1 h 1 z m 2,2 h 1 1 v 1 h -1 -1 z m -3,1 h 1 v 1 h 1 v 1 h -1 -1 v 1 h -1 v 1 h 1 1 v 1 h -1 v 1 h 1 v 1 h -1 v -1 h -1 v -1 -1 h -1 v -1 h 1 v -1 h 1 v -1 z m 6,0 h 1 v 1 h 1 v 1 h -1 v -1 h -1 z m -10,2 h 1 v 1 h -1 z m 7,0 h 1 v 1 h 1 1 v 1 h -1 -1 v -1 h -1 v 1 h -1 v -1 h 1 z m 1,4 h 1 v 1 h -1 z m 3,10 v 1 1 h 1 v -1 -1 z m 1,2 v 1 h 1 v -1 z m -1,0 h -1 v 1 h 1 z m -6,1 v 1 h 1 v -1 z m 5,1 v 1 h 1 v -1 z m 2,0 v 1 h 1 v -1 z m -11,1 v 1 h 1 v -1 z m 4,0 v 1 h 1 v -1 z m 1,1 v 1 h 1 v -1 z m -7,0 v 1 h 1 v -1 z m 11,1 v 1 1 h 1 v -1 -1 z"
     style="fill:#d8ff00;fill-opacity:1" />
</svg>
